<svg width="36" height="36" viewBox="0 0 36 36" fill="none" xmlns="http://www.w3.org/2000/svg"><rect width="36" height="36" rx="6.341" fill="#F3F3F5"/><path d="M9.667 24.25h16.667v-12.5H9.667v12.5Z" fill="#FF4735"/><path fill-rule="evenodd" clip-rule="evenodd" d="M9.042 11.75c0-.345.28-.625.625-.625h16.667c.345 0 .625.28.625.625v12.5c0 .345-.28.625-.625.625H9.667a.625.625 0 0 1-.625-.625v-12.5Zm1.25.625v11.25h15.417v-11.25H10.292Z" fill="#FF4735"/><path fill-rule="evenodd" clip-rule="evenodd" d="M9.167 11.375a.625.625 0 0 1 .875-.125L18 17.219l7.959-5.969a.625.625 0 0 1 .75 1l-8.334 6.25a.625.625 0 0 1-.75 0l-8.333-6.25a.625.625 0 0 1-.125-.875Z" fill="#fff"/><path fill-rule="evenodd" clip-rule="evenodd" d="M9.042 11.75c0-.345.28-.625.625-.625H18a.625.625 0 1 1 0 1.25h-7.708V18a.625.625 0 1 1-1.25 0v-6.25Z" fill="#FF4735"/><path fill-rule="evenodd" clip-rule="evenodd" d="M17.375 11.75c0-.345.28-.625.625-.625h8.333c.346 0 .625.28.625.625V18a.625.625 0 1 1-1.25 0v-5.625H18a.625.625 0 0 1-.625-.625Z" fill="#FF4735"/></svg>