<svg width="36" height="36" viewBox="0 0 36 36" fill="none" xmlns="http://www.w3.org/2000/svg"><circle opacity=".15" cx="18" cy="18" r="18" fill="#FF4735"/><path d="M11.333 23h13.333V13H11.333v10Z" fill="#FF4735"/><path fill-rule="evenodd" clip-rule="evenodd" d="M10.833 13a.5.5 0 0 1 .5-.5h13.333a.5.5 0 0 1 .5.5v10a.5.5 0 0 1-.5.5H11.333a.5.5 0 0 1-.5-.5V13Zm1 .5v9h12.333v-9H11.833Z" fill="#FF4735"/><path fill-rule="evenodd" clip-rule="evenodd" d="M10.933 12.7a.5.5 0 0 1 .7-.1L18 17.375l6.366-4.775a.5.5 0 0 1 .6.8l-6.666 5a.5.5 0 0 1-.6 0l-6.667-5a.5.5 0 0 1-.1-.7Z" fill="#fff"/><path fill-rule="evenodd" clip-rule="evenodd" d="M10.833 13a.5.5 0 0 1 .5-.5H18a.5.5 0 0 1 0 1h-6.167V18a.5.5 0 1 1-1 0v-5Z" fill="#FF4735"/><path fill-rule="evenodd" clip-rule="evenodd" d="M17.5 13a.5.5 0 0 1 .5-.5h6.667a.5.5 0 0 1 .5.5v5a.5.5 0 0 1-1 0v-4.5H18a.5.5 0 0 1-.5-.5Z" fill="#FF4735"/></svg>