<svg width="36" height="36" viewBox="0 0 36 36" fill="none" xmlns="http://www.w3.org/2000/svg"><circle opacity=".15" cx="18" cy="18" r="18" fill="#FF4735"/><path d="M15.713 12.51c.237 0 .456.128.57.336l.8 1.439c.104.188.11.416.013.609l-.77 1.539s.223 1.147 1.157 2.08a4.44 4.44 0 0 0 2.076 1.152l1.539-.769a.653.653 0 0 1 .609.013l1.443.803a.653.653 0 0 1 .336.57v1.657c0 .844-.784 1.453-1.583 1.183-1.642-.554-4.19-1.608-5.806-3.224-1.615-1.615-2.67-4.163-3.224-5.805-.27-.8.34-1.583 1.184-1.583h1.656Z" fill="#FF4735"/><path fill-rule="evenodd" clip-rule="evenodd" d="M14.057 13c-.538 0-.873.481-.72.936.551 1.632 1.577 4.086 3.107 5.616 1.53 1.53 3.984 2.556 5.616 3.106.455.154.936-.181.936-.719v-1.657a.163.163 0 0 0-.084-.142l-1.443-.803a.163.163 0 0 0-.152-.003l-1.54.77a.49.49 0 0 1-.31.043l.092-.481-.092.48h-.004l-.005-.001-.014-.003a3.303 3.303 0 0 1-.214-.055 4.851 4.851 0 0 1-.551-.197 4.91 4.91 0 0 1-1.543-1.03 4.93 4.93 0 0 1-1.032-1.544 4.873 4.873 0 0 1-.254-.767l-.003-.014v-.005l-.001-.002.48-.095-.48.094a.491.491 0 0 1 .042-.313l.77-1.54a.163.163 0 0 0-.003-.151l-.8-1.44a.163.163 0 0 0-.142-.083h-1.656Zm2.789 3.49c.03.106.082.26.159.44.155.364.414.826.824 1.237l-.346.346m.346-.346c.41.41.871.667 1.234.822a3.86 3.86 0 0 0 .439.157l1.377-.688c.337-.169.736-.16 1.066.023l1.443.803c.363.201.588.584.588.998v1.657c0 1.15-1.086 2.033-2.23 1.648-1.652-.558-4.294-1.642-5.995-3.342-1.7-1.701-2.784-4.344-3.342-5.996-.386-1.143.498-2.229 1.648-2.229h1.656c.415 0 .798.225 1 .588l.798 1.44c.183.329.192.728.023 1.065l-.688 1.376" fill="#FF4735"/></svg>