<svg width="36" height="36" viewBox="0 0 36 36" fill="none" xmlns="http://www.w3.org/2000/svg"><rect width="36" height="36" rx="6.341" fill="#F3F3F5"/><path d="M14.683 11.96a.77.77 0 0 1 .672.395l.941 1.695a.77.77 0 0 1 .015.717l-.906 1.814s.263 1.35 1.362 2.45c1.1 1.099 2.446 1.357 2.446 1.357l1.812-.906a.77.77 0 0 1 .718.015l1.7.945a.77.77 0 0 1 .395.673v1.951c0 .994-.923 1.712-1.864 1.394-1.934-.653-4.936-1.895-6.839-3.798-1.902-1.902-3.145-4.904-3.797-6.838-.318-.942.4-1.865 1.394-1.865h1.95Z" fill="#FF4735"/><path fill-rule="evenodd" clip-rule="evenodd" d="M12.732 12.536c-.633 0-1.028.568-.847 1.104.649 1.921 1.857 4.812 3.659 6.614 1.802 1.802 4.693 3.01 6.615 3.66.536.18 1.103-.215 1.103-.848v-1.951a.192.192 0 0 0-.099-.168l-1.7-.945a.192.192 0 0 0-.18-.004l-1.812.906a.577.577 0 0 1-.366.05l.108-.566-.108.567h-.002l-.002-.001-.006-.001-.017-.004a2.719 2.719 0 0 1-.252-.064 5.709 5.709 0 0 1-.65-.233 5.786 5.786 0 0 1-1.816-1.214m2.786.338a4.573 4.573 0 0 1-.517-.185 4.632 4.632 0 0 1-1.453-.969 4.657 4.657 0 0 1-.971-1.456 4.618 4.618 0 0 1-.187-.52l.81-1.62a1.346 1.346 0 0 0-.027-1.256l-.94-1.695a1.346 1.346 0 0 0-1.178-.693h-1.95c-1.355 0-2.396 1.28-1.941 2.626.656 1.946 1.933 5.059 3.936 7.062s5.116 3.28 7.062 3.936c1.347.455 2.626-.586 2.626-1.94v-1.951c0-.49-.265-.94-.692-1.177l-1.7-.945a1.346 1.346 0 0 0-1.256-.027l-1.622.81Zm-6.414-7.24h1.951Zm1.951 0c.07 0 .134.038.168.1Zm.168.1.941 1.694Zm.941 1.694Zm0 0c.031.056.033.123.004.18l-.906 1.813a.577.577 0 0 0-.05.368l.566-.11" fill="#FF4735"/></svg>