<svg width="36" height="36" viewBox="0 0 36 36" fill="none" xmlns="http://www.w3.org/2000/svg"><rect width="36" height="36" rx="6.341" fill="#F3F3F5"/><path fill-rule="evenodd" clip-rule="evenodd" d="M9.042 18a8.958 8.958 0 1 1 17.917 0 8.958 8.958 0 0 1-17.917 0ZM18 10.292a7.708 7.708 0 1 0 0 15.416 7.708 7.708 0 0 0 0-15.416Z" fill="#FF4735"/><path fill-rule="evenodd" clip-rule="evenodd" d="M9.042 18c0-.345.28-.625.625-.625h16.667a.625.625 0 0 1 0 1.25H9.667A.625.625 0 0 1 9.042 18Z" fill="#FF4735"/><path fill-rule="evenodd" clip-rule="evenodd" d="M16.249 9.892c.472-.5 1.064-.85 1.751-.85.688 0 1.28.35 1.752.85.471.498.867 1.186 1.186 1.983.64 1.599 1.02 3.765 1.02 6.125s-.38 4.526-1.02 6.125c-.32.797-.715 1.485-1.186 1.983-.473.5-1.064.85-1.752.85-.687 0-1.279-.35-1.751-.85-.471-.498-.867-1.186-1.186-1.983-.64-1.599-1.021-3.765-1.021-6.125s.382-4.526 1.021-6.125c.319-.797.715-1.485 1.186-1.983Zm-.025 2.447c-.567 1.418-.932 3.419-.932 5.661 0 2.242.365 4.243.932 5.66.284.71.607 1.244.933 1.589.325.344.61.46.843.46.233 0 .519-.116.844-.46.326-.345.649-.878.933-1.589.567-1.417.932-3.418.932-5.66s-.365-4.243-.932-5.66c-.284-.71-.607-1.244-.933-1.59-.325-.343-.61-.458-.844-.458-.233 0-.518.115-.843.459-.326.345-.65.878-.933 1.588Z" fill="#FF4735"/><path fill-rule="evenodd" clip-rule="evenodd" d="M11.665 11.784a.625.625 0 0 1 .884 0A7.682 7.682 0 0 0 18 14.042a7.682 7.682 0 0 0 5.45-2.258.625.625 0 1 1 .884.884A8.933 8.933 0 0 1 18 15.292a8.932 8.932 0 0 1-6.335-2.624.625.625 0 0 1 0-.884ZM11.665 23.332A8.932 8.932 0 0 1 18 20.708a8.933 8.933 0 0 1 6.334 2.624.625.625 0 1 1-.883.884A7.682 7.682 0 0 0 18 21.958a7.682 7.682 0 0 0-5.45 2.258.625.625 0 1 1-.885-.884Z" fill="#FF4735"/></svg>