<svg width="36" height="36" viewBox="0 0 36 36" fill="none" xmlns="http://www.w3.org/2000/svg"><g filter="url(#a)"><circle cx="18" cy="18" r="18" fill="#333"/><g clip-path="url(#b)"><path d="m24.701 11.42-14.175 5.494c-.57.256-.764.768-.138 1.046l3.636 1.162 8.793-5.462c.48-.343.972-.252.549.126l-7.552 6.873-.237 2.908c.22.45.622.451.879.228l2.089-1.987 3.578 2.693c.831.495 1.284.176 1.462-.73l2.347-11.172c.244-1.116-.171-1.607-1.23-1.18Z" fill="#fff"/></g></g><defs><clipPath id="b"><path fill="#fff" transform="translate(10 10)" d="M0 0h16v16H0z"/></clipPath><filter id="a" x="-7" y="-7" width="50" height="50" filterUnits="userSpaceOnUse" color-interpolation-filters="sRGB"><feFlood flood-opacity="0" result="BackgroundImageFix"/><feGaussianBlur in="BackgroundImageFix" stdDeviation="3.5"/><feComposite in2="SourceAlpha" operator="in" result="effect1_backgroundBlur_735_1144"/><feBlend in="SourceGraphic" in2="effect1_backgroundBlur_735_1144" result="shape"/></filter></defs></svg>